<svg width="484" height="512" viewBox="0 0 484 512" fill="none" xmlns="http://www.w3.org/2000/svg">
<path fill-rule="evenodd" clip-rule="evenodd" d="M144.815 214.503C144.815 206.253 138.063 199.503 129.815 199.503C116.255 199.503 66.8098 199.999 66.8098 257.185C45.9388 263.962 36.1038 279.945 36.1038 314.501C-2.0332 314.501 -2.0412 389.501 36.1038 389.501C28.3548 431.457 50.7438 448.177 67.9018 448.18C71.6018 480.797 85.9818 504.499 129.814 504.499C138.062 504.499 144.814 497.749 144.814 489.499V214.503H144.815ZM174.815 214.503V489.499C174.815 497.749 181.567 504.499 189.815 504.499C203.375 504.499 252.819 504.003 252.819 446.817C273.69 440.041 283.525 424.057 283.525 389.501C321.662 389.501 321.67 314.501 283.525 314.501C291.274 272.545 268.885 255.825 251.727 255.822C248.027 223.205 233.647 199.503 189.815 199.503C181.567 199.503 174.815 206.253 174.815 214.503Z" fill="#EAB8D5"/>
<path fill-rule="evenodd" clip-rule="evenodd" d="M280.411 202.903H317.384C333.037 212.173 351.301 217.5 370.814 217.5C428.811 217.5 475.814 170.497 475.814 112.5C475.814 54.503 428.811 7.5 370.814 7.5C312.817 7.5 265.814 54.503 265.814 112.5C265.814 132.013 271.14 150.28 280.411 165.931V202.903ZM348.314 164.999V134.999H318.314V89.999H348.314V60H393.314V90H423.314V135H393.314V165H348.314V164.999Z" fill="#A4D7F5"/>
<path fill-rule="evenodd" clip-rule="evenodd" d="M348.314 135V164.999H393.314V135H423.314V89.999H393.314V60H348.314V89.999H318.314V135H348.314Z" fill="#D15573"/>
<path fill-rule="evenodd" clip-rule="evenodd" d="M144.815 214.503C144.815 206.253 138.063 199.503 129.815 199.503C126.221 199.503 120.106 199.538 113.06 200.654C118.48 202.92 122.315 208.285 122.315 214.503V489.499C122.315 495.583 118.642 500.851 113.406 503.198C118.356 504.051 123.807 504.499 129.815 504.499C138.063 504.499 144.815 497.749 144.815 489.499V214.503ZM174.815 214.503V489.499C174.815 497.749 181.567 504.499 189.815 504.499C193.409 504.499 199.524 504.464 206.57 503.348C201.15 501.082 197.315 495.717 197.315 489.499V214.503C197.315 208.419 200.988 203.151 206.224 200.804C201.274 199.951 195.823 199.503 189.815 199.503C181.567 199.503 174.815 206.253 174.815 214.503Z" fill="#DF95C0"/>
<path d="M223.526 279.434H208.526V264.433H223.526V279.434ZM223.526 249.433H208.526V234.433H223.526V249.433Z" fill="white"/>
<path fill-rule="evenodd" clip-rule="evenodd" d="M280.411 202.903H302.911V165.93C293.64 150.279 288.314 132.013 288.314 112.499C288.314 58.3031 329.359 13.7121 382.064 8.10009C320.085 1.49809 265.814 49.8941 265.814 112.499C265.814 132.012 271.14 150.279 280.411 165.93V202.903Z" fill="#6E91EF"/>
<path d="M167.315 437.001H182.315V452.001H167.315V437.001Z" fill="black"/>
<path d="M292.056 308.063C294.628 284.676 287.782 270.561 281.189 262.639C275.128 255.357 267.038 250.56 258.33 248.936C253.417 218.608 237.431 192.003 189.815 192.003C177.409 192.003 167.315 202.097 167.315 214.503V421.999H182.315V391.25H201.026C205.162 391.25 208.526 394.614 208.526 398.749V421.249H223.526V398.749C223.526 386.343 213.432 376.25 201.026 376.25H182.315V214.503C182.315 210.367 185.679 207.003 189.815 207.003C211.774 207.003 226.538 213.357 234.952 226.426C242.025 237.413 245.319 253.723 245.319 277.753H260.319C260.319 273.56 260.23 269.301 260 265.036C263.627 266.552 266.985 269.019 269.66 272.234C274.403 277.933 279.26 288.468 277.083 307.001H238.526V322.001H283.525C298.026 322.001 304.63 337.551 304.63 351.998C304.63 366.448 298.026 382.001 283.525 382.001H276.025V389.501C276.025 412.182 271.57 426.257 262.004 433.797C253.153 440.773 238.805 443.749 214.025 443.749V458.749C226.293 458.749 236.344 458.057 244.76 456.539C241.447 483.741 223.384 496.999 189.815 496.999C185.679 496.999 182.315 493.635 182.315 489.499V467H167.315V489.499C167.315 501.905 177.409 511.999 189.815 511.999C246.895 511.999 258.793 476.644 260.171 452.116C264.346 450.338 267.999 448.17 271.289 445.577C283.632 435.848 289.931 420.062 290.893 396.202C299.054 394.382 306.099 389.492 311.185 381.99C316.63 373.959 319.629 363.307 319.629 351.998C319.63 332.495 310.195 312.782 292.056 308.063Z" fill="black"/>
<path d="M129.816 192.003C122.47 192.003 102.957 192.003 86.127 202.305L93.957 215.098C107.184 207.003 123.626 207.003 129.816 207.003C133.951 207.003 137.315 210.367 137.315 214.503V312.753H118.604C114.468 312.753 111.104 309.389 111.104 305.253V282.754H96.104V305.253C96.104 317.659 106.198 327.753 118.604 327.753H137.315V445.039C134.968 444.206 132.445 443.749 129.816 443.749H107.316V458.749H129.816C133.951 458.749 137.315 462.113 137.315 466.249V489.499C137.315 493.635 133.951 496.999 129.816 496.999C107.857 496.999 93.092 490.645 84.678 477.576C77.605 466.589 74.311 450.279 74.311 426.249H59.311C59.311 430.442 59.4 434.702 59.63 438.966C56.004 437.451 52.645 434.983 49.97 431.769C45.227 426.07 40.37 415.534 42.547 397.001H81.104V382.001H36.105C21.604 382.001 15 366.451 15 352.004C15 337.554 21.604 322.001 36.105 322.001H43.605V314.501C43.605 291.82 48.06 277.746 57.626 270.206C66.477 263.23 80.825 260.254 105.605 260.254V245.254C93.344 245.254 83.297 245.945 74.884 247.461C76.117 237.565 79.329 229.445 84.479 223.239L72.934 213.661C64.798 223.469 60.271 236.31 59.448 251.89C55.276 253.667 51.628 255.833 48.341 258.425C35.997 268.154 29.698 283.939 28.736 307.799C20.575 309.619 13.53 314.509 8.444 322.011C2.999 330.042 0 340.694 0 352.003C0 371.506 9.436 391.219 27.574 395.939C25.002 419.326 31.848 433.441 38.441 441.363C44.502 448.646 52.592 453.443 61.3 455.067C66.213 485.395 82.199 511.999 129.816 511.999C142.222 511.999 152.315 501.905 152.315 489.499V214.503C152.315 202.097 142.222 192.003 129.816 192.003Z" fill="black"/>
<path d="M66.1045 282.753H81.1045V297.753H66.1045V282.753Z" fill="black"/>
<path d="M111.104 404.502V367.003C111.104 354.597 101.01 344.503 88.6045 344.503H66.1055V359.503H88.6045C92.7405 359.503 96.1045 362.867 96.1045 367.003V404.502H111.104Z" fill="black"/>
<path d="M36.1055 344.503H51.1055V359.503H36.1055V344.503Z" fill="black"/>
<path d="M238.526 406.25H253.526V421.25H238.526V406.25Z" fill="black"/>
<path d="M208.526 299.501V337.001C208.526 349.407 218.62 359.501 231.026 359.501H253.526V344.501H231.026C226.89 344.501 223.526 341.137 223.526 337.001V299.501H208.526Z" fill="black"/>
<path d="M268.526 344.502H283.526V359.502H268.526V344.502Z" fill="black"/>
<path d="M370.814 0C308.782 0 258.314 50.468 258.314 112.5C258.314 131.978 263.355 151.102 272.912 167.947V210.402H315.369C332.215 219.958 351.339 224.999 370.814 224.999C432.846 224.999 483.314 174.532 483.314 112.5C483.314 50.468 432.846 0 370.814 0ZM370.814 209.999C353.327 209.999 336.172 205.313 321.207 196.449L319.439 195.402H287.912V163.876L286.865 162.108C278 147.143 273.314 129.989 273.314 112.5C273.314 58.738 317.052 15 370.814 15C424.576 15 468.314 58.738 468.314 112.5C468.314 166.261 424.575 209.999 370.814 209.999Z" fill="black"/>
<path d="M400.815 52.5H340.814V82.499H310.814V142.5H340.814V172.499H400.815V142.5H430.814V82.499H400.815V52.5ZM415.814 97.499V127.5H385.815V157.499H355.814V127.5H325.814V97.499H355.814V67.5H385.815V97.499H415.814Z" fill="black"/>
</svg>
