<svg width="424" height="512" viewBox="0 0 424 512" fill="none" xmlns="http://www.w3.org/2000/svg">
<path fill-rule="evenodd" clip-rule="evenodd" d="M111.647 203.743C111.648 233.917 137.684 271.789 174.377 288.258C198.847 299.242 225.043 299.242 249.513 288.259C286.206 271.79 312.244 233.918 312.244 203.743V158.736C312.243 150.486 318.994 143.736 327.243 143.736C271.578 143.736 198.913 141.471 155.748 111.736C146.047 133.187 119.145 143.736 96.6445 143.736C104.895 143.736 111.645 150.486 111.646 158.736L111.647 203.743Z" fill="#FBF2E2"/>
<path fill-rule="evenodd" clip-rule="evenodd" d="M155.748 111.736C198.913 141.471 271.578 143.736 327.243 143.736V97.5C327.243 48 286.743 7.5 237.243 7.5H171.645C155.145 7.5 141.645 21 141.645 37.5C116.895 37.5 96.6445 57.75 96.6445 82.5V143.737C119.145 143.736 146.047 133.187 155.748 111.736Z" fill="#FAEF93"/>
<path fill-rule="evenodd" clip-rule="evenodd" d="M111.647 203.743L111.646 158.736C111.645 150.486 104.895 143.736 96.6445 143.736C88.3945 143.736 81.6445 150.486 81.6445 158.736V188.743C81.6445 196.992 88.3945 203.743 96.6445 203.743H111.647Z" fill="#F7E0BA"/>
<path fill-rule="evenodd" clip-rule="evenodd" d="M312.243 158.736L312.242 203.743H327.242C335.492 203.743 342.242 196.993 342.242 188.743V158.736C342.242 150.486 335.492 143.736 327.242 143.736C318.992 143.736 312.243 150.486 312.243 158.736Z" fill="#F7E0BA"/>
<path fill-rule="evenodd" clip-rule="evenodd" d="M249.512 288.259C237.895 293.473 225.21 296.542 211.944 296.542C198.678 296.542 185.993 293.473 174.375 288.258L171.114 321.286L172.956 352.442L211.944 376.938L250.931 352.442L252.773 321.286L249.512 288.259Z" fill="#FBF2E2"/>
<path fill-rule="evenodd" clip-rule="evenodd" d="M211.944 376.938L172.957 352.442L181.944 504.5H241.944L250.931 352.442L211.944 376.938Z" fill="#9CE3BF"/>
<path fill-rule="evenodd" clip-rule="evenodd" d="M181.944 504.5L171.115 321.286L122.182 332.625L140.746 417.261L118.746 442.534L151.945 504.5H181.944Z" fill="#D6E1EF"/>
<path fill-rule="evenodd" clip-rule="evenodd" d="M118.746 442.534L140.746 417.261L122.182 332.626L73.2491 343.966C27.7491 356.419 19.9241 373.999 15.7041 420.988L8.2041 504.5H151.945L118.746 442.534Z" fill="#F8FAFC"/>
<path fill-rule="evenodd" clip-rule="evenodd" d="M241.944 504.5H271.943L305.142 442.534L283.142 417.261L301.706 332.625L252.773 321.286L241.944 504.5Z" fill="#D6E1EF"/>
<path fill-rule="evenodd" clip-rule="evenodd" d="M283.142 417.261L305.142 442.534L271.943 504.5H415.684L408.184 420.988C403.964 373.999 396.139 356.418 350.639 343.966L301.706 332.626L283.142 417.261Z" fill="#F8FAFC"/>
<path fill-rule="evenodd" clip-rule="evenodd" d="M65.2541 346.334C26.7981 358.699 19.6631 376.896 15.7031 420.988L8.20312 504.5H30.7031L38.2031 420.988C40.9451 390.451 48.0971 364.313 65.2541 346.334Z" fill="#D6E1EF"/>
<path fill-rule="evenodd" clip-rule="evenodd" d="M196.166 295.096C188.593 293.708 181.295 291.363 174.376 288.257L171.115 321.285L172.957 352.441L189.156 362.619L196.166 295.096Z" fill="#F7E0BA"/>
<path fill-rule="evenodd" clip-rule="evenodd" d="M111.647 203.743C111.648 233.917 137.684 271.789 174.377 288.258C190.238 295.378 206.825 297.88 223.196 295.77C180.595 290.282 134.148 247.428 134.147 203.742L134.146 134.116C122.707 140.548 109.012 143.736 96.6445 143.736C104.895 143.736 111.645 150.486 111.646 158.736L111.647 203.743Z" fill="#F7E0BA"/>
<path fill-rule="evenodd" clip-rule="evenodd" d="M129.169 39.272C110.438 44.715 96.6445 62.074 96.6445 82.499V143.736C103.928 143.736 111.672 142.629 119.145 140.406V67.5C119.145 56.834 122.907 47.006 129.169 39.272Z" fill="#EFC17A"/>
<path d="M286.944 67.5H271.944V52.5H286.944V67.5ZM256.944 52.5H241.944V37.5H256.944V52.5Z" fill="white"/>
<path d="M402.754 441.414L417.694 440.064L419.044 455.004L404.104 456.354L402.754 441.414Z" fill="black"/>
<path d="M420.133 470.191L405.194 471.533L407.481 497H340.685V458.994H325.685V497H284.47L314.197 441.514L291.276 415.183L307.406 341.646L348.802 351.239C389.719 362.466 396.647 376.364 400.716 421.659L401.17 426.713L416.109 425.372L415.655 420.317C413.492 396.235 410.297 378.626 401.063 365.262C391.941 352.06 377.453 343.528 352.62 336.731L259.709 315.194L257.486 292.68C291.03 275.59 315.746 241.985 319.303 211.243H327.243C339.65 211.243 349.743 201.15 349.743 188.743V158.736C349.743 148.958 343.472 140.622 334.743 137.526V97.5C334.743 43.738 291.005 0 237.243 0H171.644C153.374 0 138.122 13.137 134.817 30.459C109.084 33.817 89.144 55.866 89.144 82.5V97.499H104.144V82.5C104.144 64.391 117.048 49.239 134.144 45.755V67.5H149.144V37.5C149.144 25.093 159.238 15 171.644 15H237.243C282.733 15 319.743 52.009 319.743 97.5V136.215C258.5 135.906 197.604 131.462 160.002 105.56L152.611 100.469L148.913 108.646C141.426 125.201 121.769 133.882 104.144 135.816V112.5H89.144V137.526C80.415 140.622 74.144 148.958 74.144 158.736V188.743C74.144 201.15 84.237 211.243 96.644 211.243H104.587C108.145 241.984 132.859 275.588 166.402 292.678L164.179 315.194L71.554 336.659L71.267 336.731C46.434 343.528 31.946 352.06 22.825 365.261C13.591 378.624 10.395 396.234 8.233 420.316L0 512H423.888L420.133 470.191ZM275.007 419.34L296.086 443.555L267.453 497H249.9L259.736 330.598L292.793 338.259L275.007 419.34ZM173.988 497H156.435L127.801 443.555L148.88 419.34L131.095 338.259L164.152 330.598L173.988 497ZM181.303 366.544L211.944 385.795L242.585 366.543L234.874 497H189.014L181.303 366.544ZM334.742 188.743C334.742 192.879 331.377 196.243 327.242 196.243H319.743V158.736C319.743 156.75 320.528 154.871 321.952 153.446C323.376 152.021 325.256 151.237 327.242 151.237C331.377 151.237 334.742 154.601 334.742 158.737V188.743ZM96.644 196.243C92.509 196.243 89.144 192.879 89.144 188.743V158.736C89.144 154.6 92.509 151.236 96.644 151.236C100.78 151.236 104.144 154.601 104.144 158.736L104.145 196.242L96.644 196.243ZM119.146 203.743L119.145 158.736C119.145 155.168 118.306 151.793 116.821 148.793C122.932 147.319 128.857 145.206 134.321 142.503C144.602 137.417 152.783 130.527 158.374 122.313C196.24 144.768 250.545 150.145 306.113 151.07C305.229 153.5 304.743 156.08 304.743 158.737V203.743C304.743 221.413 294.292 242.872 277.469 259.745C258.634 278.637 235.363 289.041 211.945 289.041C188.527 289.041 165.256 278.637 146.421 259.744C129.597 242.871 119.147 221.413 119.146 203.743ZM211.945 304.042C222.674 304.042 233.117 302.151 243.016 298.795L245.251 321.435L243.672 348.146L211.944 368.081L180.216 348.146L178.637 321.435L180.872 298.794C190.772 302.151 201.215 304.042 211.945 304.042ZM23.173 421.659C27.241 376.363 34.169 362.465 75.086 351.239L116.482 341.646L132.612 415.183L109.691 441.514L139.418 497H98.202V458.994H83.202V497H16.407L23.173 421.659Z" fill="black"/>
</svg>
