<svg width="436" height="512" viewBox="0 0 436 512" fill="none" xmlns="http://www.w3.org/2000/svg">
<path fill-rule="evenodd" clip-rule="evenodd" d="M75.181 219.503H105.181V249.503H75.181V219.503ZM7.5 7.5V444.5H307.863V384.5H367.863V7.5H7.5ZM105.181 159.503V189.503H75.181V159.503H105.181ZM75.181 279.502H105.181V309.502H75.181V279.502ZM75.181 339.501H105.181V369.501H75.181V339.501ZM202.682 127.5H172.681V105H150.181V75H172.681V52.5H202.682V75H225.182V105H202.682V127.5Z" fill="#F8FAFC"/>
<path fill-rule="evenodd" clip-rule="evenodd" d="M172.681 105V127.5H202.682V105H225.182V74.999H202.682V52.5H172.681V74.999H150.181V105H172.681Z" fill="#D15573"/>
<path fill-rule="evenodd" clip-rule="evenodd" d="M367.863 384.501L307.863 444.501H37.5V474.5H397.862V37.5H367.863V384.501Z" fill="#D6E1EF"/>
<path fill-rule="evenodd" clip-rule="evenodd" d="M307.863 444.501L367.863 384.501H307.863V444.501Z" fill="#D6E1EF"/>
<path fill-rule="evenodd" clip-rule="evenodd" d="M397.862 67.499V474.5H67.499V504.5H427.862V67.499H397.862Z" fill="#D6E1EF"/>
<path fill-rule="evenodd" clip-rule="evenodd" d="M105.181 159.503H75.1807V189.503H105.181V159.503ZM105.181 339.501H75.1807V369.501H105.181V339.501ZM105.181 279.502H75.1807V309.502H105.181V279.502ZM105.181 219.503H75.1807V249.503H105.181V219.503Z" fill="#FAEF93"/>
<path fill-rule="evenodd" clip-rule="evenodd" d="M7.5 7.5H30V444.5H7.5V7.5Z" fill="#D6E1EF"/>
<path d="M345.363 75H330.363V60H345.363V75ZM345.363 45H330.363V30H345.363V45Z" fill="white"/>
<path d="M360.362 497H375.363V512H360.362V497Z" fill="black"/>
<path d="M405.363 59.999V30H375.363V0H0V45H15V15H360.362V377.001H300.362V437.001H15V60H0V452.001H29.999V482H59.999V512H345.361V497H74.999V482H405.362V74.999H420.361V497H390.362V512H435.361V59.999H405.363ZM349.756 392.001L315.362 426.395V392.001H349.756ZM390.363 467H44.999V452.001H310.969L375.363 387.607V45H390.363V467Z" fill="black"/>
<path d="M165.181 45V67.499H142.681V112.5H165.181V135H210.182V112.5H232.682V67.499H210.182V45H165.181ZM217.682 82.499V97.5H195.182V120H180.181V97.5H157.681V82.499H180.181V60H195.182V82.499H217.682Z" fill="black"/>
<path d="M127.681 287.002H300.182V302.002H127.681V287.002Z" fill="black"/>
<path d="M127.681 347.001H300.182V362.001H127.681V347.001Z" fill="black"/>
<path d="M112.681 152.003H67.6807V197.004H112.681V152.003ZM97.6807 182.004H82.6807V167.003H97.6807V182.004Z" fill="black"/>
<path d="M67.6807 317.002H112.681V272.002H67.6807V317.002ZM82.6807 287.002H97.6807V302.002H82.6807V287.002Z" fill="black"/>
<path d="M127.681 167.003H300.182V182.003H127.681V167.003Z" fill="black"/>
<path d="M67.6807 257.003H112.681V212.003H67.6807V257.003ZM82.6807 227.003H97.6807V242.003H82.6807V227.003Z" fill="black"/>
<path d="M67.6807 377.001H112.681V332.001H67.6807V377.001ZM82.6807 347.001H97.6807V362.001H82.6807V347.001Z" fill="black"/>
<path d="M127.681 227.003H300.182V242.003H127.681V227.003Z" fill="black"/>
</svg>
