<svg width="355" height="512" viewBox="0 0 355 512" fill="none" xmlns="http://www.w3.org/2000/svg">
<path fill-rule="evenodd" clip-rule="evenodd" d="M154.556 135V165H199.556V135H229.556V90H199.556V60H154.556V90H124.556V135H154.556Z" fill="#D15573"/>
<path fill-rule="evenodd" clip-rule="evenodd" d="M199.556 135V165H154.556V135H124.556V90H154.556V60H199.556V90H229.556V135H199.556ZM177.056 7.5C119.059 7.5 72.0557 54.503 72.0557 112.5C72.0557 170.497 119.059 217.5 177.056 217.5C235.053 217.5 282.056 170.497 282.056 112.5C282.056 54.503 235.053 7.5 177.056 7.5Z" fill="#A4D7F5"/>
<path fill-rule="evenodd" clip-rule="evenodd" d="M270.017 227.89C240.504 237.9 207.157 256 177.056 256C146.955 256 113.608 237.901 84.094 227.89C18.582 205.671 -10.523 277.673 19.231 313.275C26.775 354.912 55.44 359.935 69.9 346.735C81.9 335.78 82.943 315.084 61.535 306.166C53.034 302.625 41.65 296.672 39.257 288.992C35.921 280.739 37.739 269.992 42.541 262.956C50.173 251.771 62.751 252.329 74.459 256.3C126.683 281.83 99.891 341.597 134.945 388.354C149.078 407.208 162.056 432.716 162.056 474.5V504.5H192.056V474.5C192.056 432.716 205.034 407.208 219.168 388.354C254.221 341.596 227.43 281.829 279.654 256.3C291.362 252.329 303.939 251.771 311.572 262.956C316.373 269.992 318.191 280.739 314.856 288.992C312.463 296.671 301.079 302.624 292.578 306.166C271.17 315.083 272.213 335.78 284.213 346.735C298.673 359.935 327.338 354.912 334.882 313.275C364.634 277.673 335.53 205.671 270.017 227.89ZM177.056 286C192.381 286 206.785 282.883 220.811 278.413C209.489 309.441 216.063 342.482 195.164 370.359C187.812 380.166 181.82 390.205 177.056 400.569C172.292 390.205 166.3 380.166 158.948 370.359C138.05 342.482 144.623 309.441 133.301 278.413C147.327 282.883 161.731 286 177.056 286Z" fill="#EAB8D5"/>
<path fill-rule="evenodd" clip-rule="evenodd" d="M220.811 278.413C206.785 282.883 192.381 286 177.056 286C161.731 286 147.327 282.883 133.301 278.413C144.622 309.441 138.049 342.482 158.948 370.359C166.3 380.166 172.292 390.205 177.056 400.569C181.82 390.205 187.812 380.166 195.164 370.359C216.062 342.483 209.489 309.442 220.811 278.413Z" fill="#DF95C0"/>
<path fill-rule="evenodd" clip-rule="evenodd" d="M72.0557 112.5C72.0557 175.105 126.326 223.501 188.306 216.899C135.601 211.286 94.5557 166.696 94.5557 112.5C94.5557 58.3041 135.601 13.7141 188.306 8.10107C126.326 1.49907 72.0557 49.8951 72.0557 112.5Z" fill="#6E91EF"/>
<path fill-rule="evenodd" clip-rule="evenodd" d="M162.056 482H192.056V504.5H162.056V482Z" fill="#DF95C0"/>
<path d="M169.556 308.5H184.556V323.5H169.556V308.5Z" fill="white"/>
<path d="M177.057 225C239.089 225 289.557 174.533 289.557 112.5C289.557 50.467 239.089 0 177.057 0C149.979 0 123.815 9.757 103.384 27.473L113.21 38.806C130.914 23.455 153.589 15 177.057 15C230.819 15 274.557 58.738 274.557 112.5C274.557 166.261 230.819 210 177.057 210C123.295 210 79.5566 166.262 79.5566 112.5C79.5566 89.032 88.0106 66.357 103.363 48.654L92.0306 38.827C74.3136 59.257 64.5566 85.422 64.5566 112.5C64.5566 174.532 115.025 225 177.057 225Z" fill="black"/>
<path d="M342.476 241.715C326.346 218.181 298.36 210.357 267.609 220.787C259.134 223.662 250.237 227.233 241.633 230.687C219.818 239.445 197.263 248.5 177.056 248.5C156.849 248.5 134.293 239.445 112.479 230.687C103.875 227.233 94.9784 223.662 86.5034 220.787C55.7534 210.359 27.7664 218.181 11.6364 241.715C-4.14164 264.737 -3.80165 295.845 12.2134 316.515C18.2034 346.455 33.8224 355.959 42.7214 358.965C52.7594 362.356 63.7034 360.642 72.1084 354.569L111.708 359.531C115.227 370.412 120.505 381.597 128.943 392.853C140.867 408.76 154.556 432.416 154.556 474.5V512H199.556V474.5C199.556 460.263 201.162 447.014 204.331 435.12L189.837 431.259C186.332 444.412 184.556 458.961 184.556 474.5V497H169.556V474.5C169.556 451.971 166.59 418.064 140.945 383.856C124.619 362.077 121.8 340.538 119.075 319.708C115.484 292.268 112.093 266.349 77.7534 249.562L77.3224 249.352L76.8683 249.198C54.0373 241.452 42.2304 250.106 36.3464 258.728C29.8644 268.227 28.2114 281.368 32.1974 291.531C34.9164 299.753 43.5753 306.808 58.6523 313.089C65.5773 315.973 69.7404 320.384 70.6924 325.846C71.6214 331.173 69.3803 337.054 64.8443 341.195C60.1333 345.495 53.6584 346.826 47.5234 344.755C37.3924 341.332 29.7704 329.371 26.6124 311.938L26.2584 309.987L24.9874 308.466C12.1734 293.133 11.7534 268.082 24.0104 250.196C36.2964 232.269 57.3204 226.728 81.6864 234.993C89.7724 237.736 98.0883 241.074 106.892 244.608C130.026 253.896 153.95 263.5 177.056 263.5C200.162 263.5 224.085 253.896 247.221 244.608C256.025 241.074 264.341 237.735 272.427 234.993C296.794 226.728 317.816 232.269 330.103 250.196C342.361 268.082 341.941 293.132 329.126 308.466L327.855 309.987L327.501 311.938C324.343 329.371 316.721 341.333 306.59 344.755C300.453 346.828 293.981 345.497 289.269 341.195C284.733 337.054 282.493 331.173 283.421 325.846C284.373 320.385 288.536 315.973 295.461 313.089C310.538 306.808 319.197 299.753 321.916 291.531C325.901 281.369 324.248 268.228 317.767 258.728C311.883 250.105 300.075 241.453 277.245 249.197L276.791 249.351L276.36 249.561C242.02 266.348 238.629 292.267 235.038 319.707C232.312 340.537 229.494 362.076 213.167 383.855C205.265 394.397 199.259 404.971 194.809 416.18L208.75 421.715C212.759 411.62 217.976 402.448 225.169 392.852C233.607 381.596 238.885 370.412 242.404 359.531L282.005 354.569C290.411 360.642 301.354 362.357 311.392 358.965C320.29 355.959 335.91 346.455 341.9 316.515C357.913 295.845 358.254 264.738 342.476 241.715ZM64.4184 299.243C52.4623 294.262 47.2794 289.529 46.4174 286.762L46.2104 286.182C43.9964 280.704 45.0824 272.537 48.7354 267.184C50.4914 264.612 55.1294 257.816 71.5974 263.252C98.2894 276.49 100.772 295.458 104.2 321.654C105.134 328.789 106.112 336.237 107.665 343.908L83.1754 340.839C85.6284 335.259 86.4914 329.138 85.4684 323.27C83.6184 312.659 76.1434 304.126 64.4184 299.243ZM249.911 321.654C253.339 295.457 255.821 276.49 282.514 263.252C298.986 257.815 303.622 264.612 305.376 267.183C309.029 272.537 310.115 280.704 307.901 286.182L307.694 286.762C306.832 289.53 301.649 294.262 289.693 299.243C277.968 304.126 270.493 312.66 268.643 323.27C267.62 329.138 268.483 335.259 270.936 340.839L246.445 343.908C247.999 336.238 248.977 328.789 249.911 321.654Z" fill="black"/>
<path d="M227.858 280.984L233.096 266.627L218.534 271.268C203.05 276.203 189.87 278.501 177.056 278.501C164.242 278.501 151.063 276.203 135.578 271.268L121.016 266.627L126.254 280.984C130.415 292.387 131.994 304.056 133.665 316.409C136.322 336.045 139.07 356.35 152.945 374.858C159.868 384.091 165.686 393.796 170.24 403.701L177.057 418.527L183.871 403.701C188.423 393.799 194.242 384.094 201.166 374.857C215.041 356.35 217.789 336.044 220.446 316.408C222.117 304.056 223.696 292.387 227.858 280.984ZM205.581 314.397C203.07 332.95 200.699 350.473 189.164 365.86C184.699 371.815 180.651 377.958 177.057 384.228C173.461 377.957 169.413 371.814 164.95 365.86C153.415 350.473 151.044 332.95 148.533 314.397C147.42 306.171 146.282 297.764 144.314 289.32C155.905 292.154 166.54 293.5 177.057 293.5C187.574 293.5 198.209 292.155 209.8 289.32C207.832 297.764 206.694 306.172 205.581 314.397Z" fill="black"/>
<path d="M147.057 52.5V82.5H117.057V142.5H147.057V172.5H207.057V142.5H237.057V82.5H207.057V52.5H147.057ZM222.057 97.5V127.5H192.057V157.5H162.057V127.5H132.057V97.5H162.057V67.5H192.057V97.5H222.057Z" fill="black"/>
</svg>
