<svg width="512" height="435" viewBox="0 0 512 435" fill="none" xmlns="http://www.w3.org/2000/svg">
<path fill-rule="evenodd" clip-rule="evenodd" d="M37.5 37.4998V307.499H474.5V37.4998H37.5ZM157.198 188.793C128.746 179.539 97.8008 153.06 97.8008 120.84C97.8008 89.5226 130.334 72.8776 157.198 102.697C184.061 72.8776 216.594 89.5226 216.594 120.84C216.594 153.06 185.649 179.538 157.198 188.793Z" fill="#A4D7F5"/>
<path fill-rule="evenodd" clip-rule="evenodd" d="M216.595 120.84C216.595 89.5225 184.062 72.8775 157.198 102.696C130.334 72.8775 97.8008 89.5225 97.8008 120.84C97.8008 153.06 128.746 179.538 157.198 188.793C185.499 179.588 216.595 153.172 216.595 120.84Z" fill="#EAB8D5"/>
<path fill-rule="evenodd" clip-rule="evenodd" d="M474.5 307.498H37.4999V37.4989H474.5V307.498ZM22.4999 7.5C14.311 7.5 7.60098 14.149 7.50098 22.3149V322.684C7.60098 330.849 14.313 337.499 22.4999 337.499H489.5C497.687 337.499 504.399 330.849 504.499 322.684V22.4999V22.3149C504.399 14.15 497.689 7.5 489.5 7.5H22.4999Z" fill="#B0C5E0"/>
<path fill-rule="evenodd" clip-rule="evenodd" d="M338.501 397.498C305.501 397.498 278.502 370.499 278.502 337.499L233.498 337.498C233.498 370.498 206.498 397.498 173.499 397.498H338.501Z" fill="#7094C6"/>
<path fill-rule="evenodd" clip-rule="evenodd" d="M136 397.497C127.757 397.497 121 404.254 121 412.497V427.497H391.001V412.497C391.001 404.247 384.244 397.497 376.001 397.497H136Z" fill="#B0C5E0"/>
<path fill-rule="evenodd" clip-rule="evenodd" d="M22.4999 7.50002C14.3109 7.50002 7.60098 14.149 7.50098 22.315V322.684C7.60098 330.849 14.3129 337.499 22.4999 337.499H44.9998C36.8129 337.499 30.1009 330.85 30.0009 322.684V22.314C30.1009 14.148 36.8119 7.49902 44.9998 7.49902L22.4999 7.50002Z" fill="#7094C6"/>
<path fill-rule="evenodd" clip-rule="evenodd" d="M37.5 37.4998H59.9999V307.499H37.5V37.4998Z" fill="#6E91EF"/>
<path fill-rule="evenodd" clip-rule="evenodd" d="M136 397.497C127.757 397.497 121 404.254 121 412.497V427.497H143.5V412.497C143.5 404.254 150.257 397.497 158.5 397.497H136Z" fill="#7094C6"/>
<path fill-rule="evenodd" clip-rule="evenodd" d="M130.57 87.2656C112.651 85.2256 97.7998 99.6826 97.7998 120.841C97.7998 153.061 128.745 179.539 157.197 188.794C163.554 186.726 170.051 183.788 176.306 180.112C148.841 169.931 120.299 144.286 120.299 113.342C120.3 102.41 124.267 93.2686 130.57 87.2656Z" fill="#DF95C0"/>
<path d="M452 104.999H437V89.9985H452V104.999ZM452 74.9985H437V59.9985H452V74.9985Z" fill="white"/>
<path d="M489.5 0H22.4999C10.094 0 0 10.093 0 22.4999V52.4998H14.9999V22.4999C14.9999 18.3649 18.3639 14.9999 22.4999 14.9999H489.5C493.636 14.9999 497 18.3639 497 22.4999V322.499C497 326.634 493.636 329.999 489.5 329.999H22.4999C18.3639 329.999 14.9999 326.634 14.9999 322.499V67.4997H0V322.499C0 334.906 10.094 344.999 22.4999 344.999H225.454C221.802 370.406 199.899 389.997 173.498 389.997H135.999C123.594 389.997 113.5 400.09 113.5 412.497V434.997H308.501V419.997H128.499V412.496C128.499 408.361 131.863 404.996 135.999 404.996H376.001C380.137 404.996 383.501 408.361 383.501 412.496V419.996H353.501V434.996H398.5V412.496C398.5 400.089 388.406 389.996 376.001 389.996H338.502C312.101 389.996 290.198 370.405 286.546 344.998H489.5C501.906 344.998 512 334.905 512 322.498V22.4989C512 10.093 501.906 0 489.5 0ZM296.141 389.996H215.859C229.344 379.094 238.558 363.121 240.571 344.998H271.428C273.442 363.121 282.656 379.095 296.141 389.996Z" fill="black"/>
<path d="M30 29.9988V314.998H482V29.9988H30ZM467 299.998H44.9999V44.9987H467V299.998Z" fill="black"/>
<path d="M323.501 419.996H338.501V434.996H323.501V419.996Z" fill="black"/>
<path d="M154.877 195.926L157.197 196.68L159.516 195.926C176.078 190.539 191.699 180.647 203.501 168.072C216.973 153.718 224.094 137.386 224.094 120.842C224.094 102.851 214.551 87.5606 199.782 81.8896C185.974 76.5876 170.478 80.4356 157.196 92.1496C143.914 80.4346 128.413 76.5886 114.612 81.8896C99.8418 87.5616 90.2988 102.851 90.2988 120.843C90.2988 137.387 97.4198 153.719 110.892 168.073C122.696 180.647 138.316 190.539 154.877 195.926ZM157.197 180.868C139.774 174.614 122.017 161.66 112.459 145.432H127.611L135.96 140.152L150.979 154.699L165.63 145.432H201.936C192.378 161.659 174.621 174.614 157.197 180.868ZM119.99 95.8916C122.351 94.9846 124.803 94.5386 127.308 94.5386C135.315 94.5386 143.858 99.0946 151.624 107.717L157.196 113.902L162.768 107.717C172.965 96.3966 184.498 92.0876 194.404 95.8916C203.465 99.3706 209.093 108.932 209.093 120.841C209.093 124.096 208.707 127.298 208.001 130.432H161.283L152.934 135.712L137.915 121.164L123.264 130.432H106.391C105.685 127.298 105.299 124.097 105.299 120.841C105.301 108.931 110.93 99.3706 119.99 95.8916Z" fill="black"/>
<path d="M257.305 130.431H414.803V145.431H257.305V130.431Z" fill="black"/>
<path d="M257.305 167.93H414.803V182.93H257.305V167.93Z" fill="black"/>
<path d="M257.305 92.9314H414.803V107.931H257.305V92.9314Z" fill="black"/>
<path d="M97.1973 212.93H217.196V227.93H97.1973V212.93Z" fill="black"/>
<path d="M97.1973 250.429H217.196V265.429H97.1973V250.429Z" fill="black"/>
<path d="M414.803 235.429H399.803V250.429H379.178V212.93H364.178V250.429H343.554V227.93H328.554V250.429H307.929V235.429H292.929V250.429H272.304V212.93H257.304V265.429H414.803V235.429Z" fill="black"/>
</svg>
