<svg width="1461" height="443" viewBox="0 0 1461 443" fill="none" xmlns="http://www.w3.org/2000/svg">
<path d="M119.438 111.969V141.5H37.7344V111.969H119.438ZM50.5312 48.75V208H12.1406V48.75H50.5312ZM145.25 48.75V208H106.969V48.75H145.25ZM279.234 178.469V208H194.359V178.469H279.234ZM208.031 48.75V208H169.641V48.75H208.031ZM268.297 111.969V140.516H194.359V111.969H268.297ZM279.562 48.75V78.3906H194.359V48.75H279.562ZM362.469 82.2188L323.641 208H282.406L340.922 48.75H367.062L362.469 82.2188ZM394.625 208L355.688 82.2188L350.656 48.75H377.125L435.969 208H394.625ZM393.094 148.609V178.25H311.391V148.609H393.094ZM552.891 178.469V208H472.391V178.469H552.891ZM486.062 48.75V208H447.672V48.75H486.062ZM623.656 48.75V208H585.266V48.75H623.656ZM671.562 48.75V78.3906H538.453V48.75H671.562ZM795.156 111.969V141.5H713.453V111.969H795.156ZM726.25 48.75V208H687.859V48.75H726.25ZM820.969 48.75V208H782.688V48.75H820.969ZM991.703 154.078H1029.98C1029.47 165.161 1026.48 174.932 1021.02 183.391C1015.55 191.849 1007.96 198.448 998.266 203.188C988.641 207.854 977.266 210.188 964.141 210.188C953.495 210.188 943.979 208.401 935.594 204.828C927.281 201.255 920.208 196.115 914.375 189.406C908.615 182.698 904.203 174.568 901.141 165.016C898.151 155.464 896.656 144.708 896.656 132.75V124.109C896.656 112.151 898.224 101.396 901.359 91.8438C904.568 82.2188 909.089 74.0521 914.922 67.3438C920.828 60.5625 927.901 55.3854 936.141 51.8125C944.38 48.2396 953.531 46.4531 963.594 46.4531C977.448 46.4531 989.151 48.9323 998.703 53.8906C1008.26 58.849 1015.66 65.6667 1020.91 74.3438C1026.16 82.9479 1029.26 92.7552 1030.2 103.766H991.922C991.776 97.7865 990.755 92.7917 988.859 88.7812C986.964 84.6979 983.974 81.6354 979.891 79.5938C975.807 77.5521 970.375 76.5312 963.594 76.5312C958.854 76.5312 954.734 77.4062 951.234 79.1562C947.734 80.9062 944.818 83.6771 942.484 87.4688C940.151 91.2604 938.401 96.1823 937.234 102.234C936.141 108.214 935.594 115.432 935.594 123.891V132.75C935.594 141.208 936.104 148.427 937.125 154.406C938.146 160.385 939.786 165.271 942.047 169.062C944.307 172.854 947.224 175.661 950.797 177.484C954.443 179.234 958.891 180.109 964.141 180.109C969.974 180.109 974.896 179.198 978.906 177.375C982.917 175.479 986.016 172.635 988.203 168.844C990.391 164.979 991.557 160.057 991.703 154.078ZM1115.62 82.2188L1076.8 208H1035.56L1094.08 48.75H1120.22L1115.62 82.2188ZM1147.78 208L1108.84 82.2188L1103.81 48.75H1130.28L1189.12 208H1147.78ZM1146.25 148.609V178.25H1064.55V148.609H1146.25ZM1200.83 48.75H1263.5C1275.75 48.75 1286.4 50.5729 1295.44 54.2188C1304.48 57.8646 1311.44 63.2604 1316.33 70.4062C1321.29 77.5521 1323.77 86.375 1323.77 96.875C1323.77 105.99 1322.34 113.609 1319.5 119.734C1316.66 125.859 1312.68 130.927 1307.58 134.938C1302.55 138.875 1296.68 142.12 1289.97 144.672L1277.39 151.781H1224.78L1224.56 122.141H1263.5C1268.39 122.141 1272.43 121.266 1275.64 119.516C1278.85 117.766 1281.26 115.286 1282.86 112.078C1284.54 108.797 1285.38 104.896 1285.38 100.375C1285.38 95.7812 1284.54 91.8438 1282.86 88.5625C1281.18 85.2812 1278.7 82.7656 1275.42 81.0156C1272.21 79.2656 1268.24 78.3906 1263.5 78.3906H1239.22V208H1200.83V48.75ZM1288 208L1252.78 137.562L1293.47 137.344L1329.12 206.359V208H1288ZM1456.55 178.469V208H1371.67V178.469H1456.55ZM1385.34 48.75V208H1346.95V48.75H1385.34ZM1445.61 111.969V140.516H1371.67V111.969H1445.61ZM1456.88 48.75V78.3906H1371.67V48.75H1456.88Z" fill="#0D3742"/>
<path d="M455.405 387.953L485.935 412.166L469.542 426.002L439.539 401.789L455.405 387.953ZM487.213 349.077V353.514C487.213 361.885 486.035 369.405 483.679 376.072C481.373 382.689 478.064 388.354 473.753 393.066C469.492 397.729 464.454 401.313 458.639 403.819C452.824 406.276 446.407 407.504 439.389 407.504C432.32 407.504 425.854 406.276 419.988 403.819C414.173 401.313 409.11 397.729 404.799 393.066C400.538 388.354 397.229 382.689 394.873 376.072C392.567 369.405 391.414 361.885 391.414 353.514V349.077C391.414 340.705 392.567 333.186 394.873 326.519C397.229 319.851 400.513 314.187 404.724 309.524C408.985 304.812 414.023 301.228 419.838 298.771C425.703 296.265 432.17 295.012 439.238 295.012C446.257 295.012 452.673 296.265 458.488 298.771C464.354 301.228 469.417 304.812 473.678 309.524C477.989 314.187 481.323 319.851 483.679 326.519C486.035 333.186 487.213 340.705 487.213 349.077ZM460.368 353.514V348.927C460.368 343.513 459.892 338.75 458.939 334.64C458.037 330.479 456.684 326.995 454.879 324.188C453.074 321.38 450.843 319.275 448.187 317.871C445.58 316.417 442.597 315.69 439.238 315.69C435.729 315.69 432.671 316.417 430.064 317.871C427.458 319.275 425.277 321.38 423.522 324.188C421.768 326.995 420.439 330.479 419.537 334.64C418.685 338.75 418.259 343.513 418.259 348.927V353.514C418.259 358.878 418.685 363.64 419.537 367.801C420.439 371.911 421.768 375.396 423.522 378.253C425.327 381.11 427.533 383.266 430.14 384.72C432.797 386.174 435.88 386.9 439.389 386.9C442.747 386.9 445.73 386.174 448.337 384.72C450.944 383.266 453.124 381.11 454.879 378.253C456.684 375.396 458.037 371.911 458.939 367.801C459.892 363.64 460.368 358.878 460.368 353.514ZM590.877 296.516H617.271V368.026C617.271 376.549 615.491 383.767 611.932 389.683C608.373 395.548 603.385 399.984 596.968 402.992C590.551 406 583.007 407.504 574.334 407.504C565.762 407.504 558.217 406 551.7 402.992C545.234 399.984 540.17 395.548 536.511 389.683C532.902 383.767 531.097 376.549 531.097 368.026V296.516H557.566V368.026C557.566 372.538 558.217 376.223 559.521 379.08C560.824 381.887 562.729 383.943 565.236 385.246C567.742 386.549 570.775 387.201 574.334 387.201C577.944 387.201 580.976 386.549 583.433 385.246C585.889 383.943 587.744 381.887 588.997 379.08C590.251 376.223 590.877 372.538 590.877 368.026V296.516ZM740.035 385.697V406H681.683V385.697H740.035ZM691.082 296.516V406H664.689V296.516H691.082ZM732.515 339.979V359.604H681.683V339.979H732.515ZM740.26 296.516V316.894H681.683V296.516H740.26ZM809.711 296.516V406H783.392V296.516H809.711ZM859.084 296.516H902.171C910.593 296.516 917.912 297.769 924.128 300.275C930.344 302.782 935.131 306.492 938.49 311.404C941.899 316.317 943.603 322.383 943.603 329.602C943.603 335.868 942.626 341.106 940.671 345.317C938.716 349.528 935.984 353.012 932.474 355.77C929.015 358.477 924.98 360.707 920.368 362.462L911.721 367.35H875.552L875.401 346.972H902.171C905.529 346.972 908.312 346.37 910.517 345.167C912.723 343.964 914.377 342.259 915.48 340.054C916.633 337.798 917.21 335.116 917.21 332.008C917.21 328.85 916.633 326.143 915.48 323.887C914.327 321.631 912.623 319.901 910.367 318.698C908.161 317.495 905.429 316.894 902.171 316.894H885.477V406H859.084V296.516ZM919.014 406L894.802 357.574L922.774 357.424L947.288 404.872V406H919.014ZM1006.59 296.516L1026.74 344.039L1046.97 296.516H1075.39L1040.2 366.673V406H1013.35V366.673L978.088 296.516H1006.59Z" fill="#0D3742"/>
<rect x="113" y="338" width="218" height="31" rx="15.5" fill="#08AA91"/>
<rect x="1131" y="338" width="218" height="31" rx="15.5" fill="#08AA91"/>
</svg>
